<svg xmlns="http://www.w3.org/2000/svg" viewBox="0 0 90 84"><g id="Layer_2" data-name="Layer 2"><g id="Layer_1-2" data-name="Layer 1"><path d="M2,83a3.55,3.55,0,0,1,.54.3c.11.09.26.24.24.36a.51.51,0,0,1-.29.34.85.85,0,0,1-1.09-.62c-.05-.44-.29-.55-.63-.75a1.51,1.51,0,0,1-.73-1,13.11,13.11,0,0,1,0-2.87c.1-.84.69-1.16,1.67-1.14s1.5.44,1.58,1.22a14,14,0,0,1,0,2.75A1.38,1.38,0,0,1,2,82.78ZM.88,80.27a2.83,2.83,0,0,0,.08,1c.11.26.42.59.65.61s.7-.3.72-.52a7.81,7.81,0,0,0,0-2.16c0-.21-.48-.52-.72-.51s-.54.35-.65.61A3.22,3.22,0,0,0,.88,80.27Z"/><path d="M43.17,20.22c6,0,9.44,1.92,12,5.36a46.56,46.56,0,0,1,6.19,11.08c2.51,6.42-2.68,11.11-7.19,11.77a11.33,11.33,0,0,1-6.8-1,5.8,5.8,0,0,0-5.23,0,10.59,10.59,0,0,1-9.08.31c-4-1.73-6.83-5.86-4.93-10.81a40.39,40.39,0,0,1,7.4-12.65C38,21.53,41.14,20.23,43.17,20.22Z"/><path d="M46.42,11.75a15.18,15.18,0,0,1,3.11-9.32A8.39,8.39,0,0,1,51.12.93,4,4,0,0,1,57.18,2,10.29,10.29,0,0,1,58.8,7.84a14.91,14.91,0,0,1-3.12,9.88A8,8,0,0,1,54,19.25a4,4,0,0,1-5.92-1.09A11.24,11.24,0,0,1,46.42,11.75Z"/><path d="M30.81,9.19c0-2.95.32-4.91,1.33-6.71,1.53-2.71,4.29-3.25,6.71-1.31a8.53,8.53,0,0,1,1.27,1.28,14.57,14.57,0,0,1,3,7.78,12.8,12.8,0,0,1-.85,6.59,8.44,8.44,0,0,1-.8,1.4,4,4,0,0,1-6,1A10.77,10.77,0,0,1,31.85,14,15.5,15.5,0,0,1,30.81,9.19Z"/><path d="M68.5,19.48a12,12,0,0,1-4.42,8.64,6.06,6.06,0,0,1-2.25,1.06,2.84,2.84,0,0,1-3.31-1.53,7.07,7.07,0,0,1-.63-4.59,12.29,12.29,0,0,1,3.76-7.33,5.35,5.35,0,0,1,2.94-1.53,3,3,0,0,1,3.15,1.55A7.12,7.12,0,0,1,68.5,19.48Z"/><path d="M21.11,18.58a14.37,14.37,0,0,1,.53-2.28A3.11,3.11,0,0,1,26,14.44a7.32,7.32,0,0,1,3.23,2.61,11.68,11.68,0,0,1,2.52,8.83,5.78,5.78,0,0,1-.57,1.7,3,3,0,0,1-3.66,1.57A6.63,6.63,0,0,1,24.27,27,12.93,12.93,0,0,1,21.11,18.58Z"/><path d="M73.59,64.9c.37.53.68,1,1,1.44,1,1.3,1.94,2.59,2.89,3.89.12.18.26.5.18.62s-.41.23-.62.34c0,0,0,0-.07,0-2.87-.11-2.49.25-4-2-.89-1.31-1.85-2.58-2.9-4.05v5.16c0,.68-.22.87-.91.9-.41,0-.81,0-1.22,0-.72,0-.92-.22-.91-.93q0-3.55,0-7.11c0-2.1,0-4.21,0-6.32,0-1,.22-1.25,1.27-1.23,1.76,0,3.53,0,5.29.22,3,.29,4,2.52,3.72,5.13-.24,2.07-1.58,3.16-3.43,3.77ZM70.06,62c1,0,2,0,3,0a1.32,1.32,0,0,0,1.29-1.47,1.86,1.86,0,0,0-1.72-2,14.16,14.16,0,0,0-2.06,0c-.16,0-.43.2-.44.32C70.05,59.91,70.06,60.94,70.06,62Z"/><path d="M82.74,61.58h2.82c.88,0,1.76.05,2.65.07.44,0,.63.21.6.64s-.07,1.16-.09,1.74-.4.56-.78.56c-1.49,0-3,0-4.47,0-.23,0-.47,0-.76,0v3.5l.66,0,4.85,0c.4,0,.7.13.71.57s0,1.17,0,1.75-.26.71-.8.71q-3.69,0-7.38,0c-1.07,0-1.09-.06-1.08-1.14,0-3,0-5.91,0-8.86,0-1.57,0-3.14,0-4.71,0-.51.24-.79.73-.8.73,0,1.46,0,2.19,0l5.51,0c.68,0,.85.17.81.83,0,.5,0,1,0,1.49s-.25.73-.82.72c-1.62-.06-3.24,0-4.86,0a.6.6,0,0,0-.43.37C82.72,59.88,82.74,60.68,82.74,61.58Z"/><path d="M24.44,61.5c0,1.74,0,3.48,0,5.23a4.78,4.78,0,0,1-1.66,3.58,4.29,4.29,0,0,1-3.1,1.07,12.32,12.32,0,0,1-3.05-.4c-1.75-.58-2.41-2.13-2.58-3.79-.22-2-.25-4.12-.33-6.18,0-1.38,0-2.76-.07-4.13,0-1,.14-1.18,1.12-1.21.41,0,.82,0,1.23-.06s.75.2.75.71c0,1.35,0,2.71,0,4.06,0,2.09.1,4.17.2,6.25a1.82,1.82,0,0,0,1.55,1.81,2.2,2.2,0,0,0,2.64-1.33A3.71,3.71,0,0,0,21.36,66c0-2.12,0-4.25,0-6.38,0-1-.06-2-.07-3,0-.79.19-1,1-1,.43,0,.86,0,1.29,0,.83,0,1,.18,1,1,0,1.23,0,2.46,0,3.68,0,.41,0,.82,0,1.23Z"/><path d="M63.54,71.18h-.71a1.09,1.09,0,0,1-1.12-.87c-.18-.56-.39-1.1-.55-1.66a.65.65,0,0,0-.73-.54c-1.23,0-2.46,0-3.69,0a.55.55,0,0,0-.64.48c-.16.62-.35,1.24-.52,1.86a1,1,0,0,1-1,.8c-.5,0-1,0-1.49,0-.67,0-.85-.3-.65-.93.74-2.34,1.49-4.68,2.23-7s1.43-4.42,2.12-6.64a1.24,1.24,0,0,1,1.29-1c1.81-.08,1.86-.12,2.45,1.61,1.21,3.5,2.35,7,3.51,10.52.25.75.52,1.5.76,2.26.33,1,.14,1.25-.91,1.21h-.33Zm-3.43-6.12-1.56-4.39-1.38,4.39Z"/><path d="M42.78,63.61c.07.94.12,2,.24,3.09a1.78,1.78,0,0,0,1.74,1.74c1.42.09,2.17-.38,2.48-1.54s.42-1.28,1.73-1.19h.19c1.25-.07,1.51-.18,1.25,1.58a4.63,4.63,0,0,1-4.91,4.09l-.78,0c-2.66,0-4.19-1.3-4.62-3.94a23.6,23.6,0,0,1,0-7.91,4.24,4.24,0,0,1,2.5-3.59c1.63-.66,5-.82,6.59,1a5.54,5.54,0,0,1,1.3,3.1.72.72,0,0,1-.83.89,11.21,11.21,0,0,1-1.74-.07,1,1,0,0,1-.59-.6c-.38-1.33-.87-1.77-2.22-1.82A1.82,1.82,0,0,0,43,60.13C42.9,61.24,42.87,62.36,42.78,63.61Z"/><path d="M27.12,63.55c0-2.2,0-4.39,0-6.59,0-1.11.24-1.35,1.33-1.32,1.78.06,3.57.08,5.35.23a3.83,3.83,0,0,1,3.66,3.82,4.38,4.38,0,0,1-2.87,4.84,9.81,9.81,0,0,1-3.3.39c-1.24,0-1.21-.06-1.19,1.19,0,1.42,0,2.84,0,4.26a.74.74,0,0,1-.85.82c-.43,0-.87,0-1.3,0-.68,0-.87-.21-.86-.9,0-1.15,0-2.29,0-3.43S27.12,64.66,27.12,63.55Zm4.59-1.45a14,14,0,0,0,1.6-.14,1.34,1.34,0,0,0,.74-.46,1.86,1.86,0,0,0-1-2.83,17.37,17.37,0,0,0-2.18-.13c-.54,0-.8.15-.72.73a8.42,8.42,0,0,1,0,1.23C30.13,62.06,30.12,62.06,31.71,62.1Z"/><path d="M.93,63.54q0-3.34,0-6.71c0-.92.23-1.2,1.12-1.18a54,54,0,0,1,5.55.24c2.71.34,3.45,1.74,3.66,3.91a4.23,4.23,0,0,1-2.78,4.69,9.83,9.83,0,0,1-3.35.43c-1.3,0-1.26-.06-1.22,1.22,0,1.44,0,2.88,0,4.32a.66.66,0,0,1-.73.72l-1.36,0c-.74,0-.91-.17-.91-.9V63.54Zm4.52-1.43c.6,0,1.14-.06,1.66-.15a1.3,1.3,0,0,0,.72-.38A1.88,1.88,0,0,0,6.9,58.7a13.53,13.53,0,0,0-2.63-.12c-.12,0-.33.31-.34.49a13.38,13.38,0,0,0,0,1.41c0,.49-.19,1.18.06,1.41S5,62.05,5.45,62.11Z"/><path d="M45.42,77.78c.61-.19.95-.06,1.17.42s.62,1.16,1,1.81c.39-.67.74-1.23,1-1.82s.56-.63,1.19-.38c0,.94,0,2,0,3,0,.41,0,.82,0,1.23,0,.84,0,.84-.93.66V80.06l-.15,0c-.21.35-.41.71-.64,1a4.45,4.45,0,0,1-.41.47,3.42,3.42,0,0,1-.47-.46,4.76,4.76,0,0,0-.8-1v2.56c-1,.19-1,.18-1-.67Z"/><path d="M53.65,80.06v2.58c-.94.18-.95.18-.94-.68,0-1.23,0-2.46,0-3.68a1.06,1.06,0,0,1,.23-.55,1.17,1.17,0,0,1,.75.3c.48.68.88,1.42,1.32,2.14a4.08,4.08,0,0,0,.32.38V77.8c.95-.21,1-.17,1,.66v4.18a.87.87,0,0,1-1.24-.43c-.4-.75-.87-1.46-1.32-2.18Z"/><path d="M11.1,81.15H9.63l-.08,1.51c-.94.16-1,.14-.93-.74s0-1.76.07-2.64c.07-1.15.56-1.64,1.63-1.66s1.71.37,1.79,1.6a30.08,30.08,0,0,1,0,3.15c0,.13-.31.3-.51.35s-.52,0-.51-.37S11.1,81.59,11.1,81.15Zm.22-1a9,9,0,0,0-.58-1.44c-.07-.12-.68-.11-.74,0a8.56,8.56,0,0,0-.52,1.44Z"/><path d="M33.5,80.73v2h-1V80c0-.63,0-1.25,0-1.87a.68.68,0,0,1,.45-.44,13.19,13.19,0,0,1,1.54,0,1.16,1.16,0,0,1,1.27.88,1.58,1.58,0,0,1-.48,1.8c-.17.13-.34.24-.54.38.23.52.3,1.11,1,1.22a.46.46,0,0,1,.2.39.53.53,0,0,1-.34.36c-.59.14-1-.15-1.36-.83-.18-.36-.36-.73-.55-1.09C33.76,80.78,33.69,80.78,33.5,80.73Zm0-2.31V79.9a9.44,9.44,0,0,0,1.29-.38.71.71,0,0,0,0-.57A9.56,9.56,0,0,0,33.55,78.42Z"/><path d="M72.9,80.78V82.7h-1V79.87c0-.23,0-.47,0-.71,0-1.81-.22-1.38,1.52-1.49.15,0,.3,0,.45,0a1.2,1.2,0,0,1,1.34.87,1.57,1.57,0,0,1-.53,1.84c-.15.11-.32.21-.51.34.26.49.29,1.11,1,1.23.1,0,.23.29.23.44a.49.49,0,0,1-.33.31A1.13,1.13,0,0,1,73.74,82c-.21-.41-.39-.83-.59-1.25Zm0-.87a9.91,9.91,0,0,0,1.29-.4c.07,0,.05-.56,0-.61a6.93,6.93,0,0,0-1.24-.41Z"/><path d="M17,46c0-.67,0-1.34,0-2,0-.17.21-.48.33-.48a8.32,8.32,0,0,1,1.8.06,1.23,1.23,0,0,1,1.18,1.3,20,20,0,0,1,0,2.32A1.41,1.41,0,0,1,19,48.55a7.77,7.77,0,0,1-1.67,0c-.15,0-.36-.33-.37-.52,0-.69,0-1.38,0-2.06Zm.89-1.55c0,.81,0,1.64,0,2.46,0,.62.19.78.76.74s.69-.22.72-.65a13.09,13.09,0,0,0,0-1.4C19.35,44.42,19.2,44.3,17.88,44.42Z"/><path d="M40.29,80.1c0,.45,0,.78-.08,1.1a1.63,1.63,0,0,1-2.05,1.59c-.77-.08-1.24-.42-1.31-1.19a14,14,0,0,1,0-2.75c.09-.86.63-1.22,1.55-1.23a1.53,1.53,0,0,1,1.74,1.2A12.08,12.08,0,0,1,40.29,80.1Zm-2.63.12a3.78,3.78,0,0,0,.1,1.06c.1.24.42.56.64.55s.7-.3.72-.51a9.16,9.16,0,0,0,0-2.22c0-.2-.44-.49-.68-.48a.94.94,0,0,0-.67.5A3.84,3.84,0,0,0,37.66,80.22Z"/><path d="M44.54,80.21c0,.28,0,.57,0,.84a1.64,1.64,0,0,1-1.92,1.75,1.36,1.36,0,0,1-1.5-1.37,14.2,14.2,0,0,1,0-2.44,1.39,1.39,0,0,1,1.57-1.37,1.55,1.55,0,0,1,1.79,1.31,9.07,9.07,0,0,1,.09,1.28Zm-1,.06a3.58,3.58,0,0,0-.11-1.11,1,1,0,0,0-.71-.54.83.83,0,0,0-.64.52,9.84,9.84,0,0,0,0,2.17.84.84,0,0,0,.64.52.94.94,0,0,0,.69-.51A3.32,3.32,0,0,0,43.56,80.27Z"/><path d="M30.64,81,30,80.9c-.24-.8-.18-.89.6-.89,1.06,0,1.06,0,1,1A1.72,1.72,0,0,1,29,82.61a1.49,1.49,0,0,1-.7-1,12.57,12.57,0,0,1,0-2.81c.1-.84.65-1.18,1.59-1.18a1.5,1.5,0,0,1,1.67,1.12c0,.18-.1.39-.15.59-.26-.07-.68-.07-.76-.23-.23-.45-.58-.68-1-.48a1.25,1.25,0,0,0-.5.85,7.29,7.29,0,0,0,0,1.55c0,.46.16.87.74.85S30.64,81.52,30.64,81Z"/><path d="M59.68,81,59,80.9c-.23-.81-.18-.89.6-.89,1.15,0,1.15,0,1.06,1.14A1.58,1.58,0,0,1,59,82.8c-1.12,0-1.65-.4-1.74-1.53a14.55,14.55,0,0,1,0-2.38,1.33,1.33,0,0,1,1.39-1.27,1.63,1.63,0,0,1,1.9,1.09,1.56,1.56,0,0,1-.09.62c-.28-.07-.73-.06-.82-.23-.23-.41-.54-.66-.92-.49a1.18,1.18,0,0,0-.56.8,7.17,7.17,0,0,0,0,1.67c0,.43.19.82.75.79S59.66,81.5,59.68,81Z"/><path d="M65.4,77.62a1.51,1.51,0,0,1,1.65,1c0,.21,0,.62-.12.66-.29.09-.63.18-.87-.27a1.23,1.23,0,0,0-.8-.45c-.13,0-.43.23-.47.4a.67.67,0,0,0,.28.55,8.76,8.76,0,0,0,1.14.46,1.27,1.27,0,0,1,.87,1.47,1.38,1.38,0,0,1-1.18,1.27c-1.15.2-2-.26-2.15-1.19a1.54,1.54,0,0,1,.16-.6c.27.1.69.14.78.33.18.35.36.63.75.56a.92.92,0,0,0,.6-.44c0-.14-.15-.47-.32-.59a6.11,6.11,0,0,0-1-.39c-.88-.39-1.17-.88-1-1.65A1.45,1.45,0,0,1,65.4,77.62Z"/><path d="M78,45.91c0,.53,0,.87-.06,1.21a1.51,1.51,0,0,1-1.63,1.48c-1,0-1.45-.4-1.55-1.44a11,11,0,0,1,0-2.37,1.29,1.29,0,0,1,1.38-1.27,1.48,1.48,0,0,1,1.7,1.16A9.75,9.75,0,0,1,78,45.91ZM75.61,46a4.81,4.81,0,0,0,.09,1.1.8.8,0,0,0,.55.5c.2,0,.58-.25.59-.42a12.4,12.4,0,0,0,0-2.28c0-.18-.38-.45-.58-.44s-.47.27-.55.48A4.76,4.76,0,0,0,75.61,46Z"/><path d="M71,77.69v.89H69.07v1.08h1.87v1H69v1.22H70.4c.71,0,.74.06.55.85H68v-4c0-1,0-1,1.07-1Z"/><path d="M87,82.74c0-1.64,0-3.14,0-4.64,0-.14.21-.39.33-.39.86,0,1.72,0,2.61,0v.9H88v1.09h1.18c.84,0,.84,0,.67.95H88v1.2h1.9c.23.84.18.91-.55.91Z"/><path d="M9.12,46.86c.5-.08.9-.16,1.1.47.06.18.52.31.81.32s.44-.33.41-.46A1.08,1.08,0,0,0,11,46.6c-.33-.19-.72-.28-1.06-.45a1.21,1.21,0,0,1-.71-1.44,1.29,1.29,0,0,1,1.2-1.16c1.09-.17,1.85.22,2,1.09,0,.17-.1.38-.15.58-.26-.09-.65-.09-.75-.27a.79.79,0,0,0-.94-.48.66.66,0,0,0-.43.4.59.59,0,0,0,.24.51c.4.21.84.34,1.25.52a1.22,1.22,0,0,1,.78,1.46,1.35,1.35,0,0,1-1.21,1.23C9.88,48.76,9.12,48.16,9.12,46.86Z"/><path d="M5.27,77.6c0,1.24,0,2.29,0,3.34,0,.47.11.94.73.93s.78-.44.77-1c0-.91,0-1.81,0-2.71,0-.4.14-.56.51-.55s.54.13.53.54c0,1,0,2,0,3a1.52,1.52,0,0,1-1.6,1.59c-1.11,0-1.7-.35-1.8-1.39a32.78,32.78,0,0,1-.11-3.29C4.25,77.42,4.79,77.8,5.27,77.6Z"/><path d="M5.33,43.61H8.24v.83H6.35v1.08H8.26l0,.87H6.32v1.22c.51,0,1,0,1.53,0s.46.19.46.52-.11.46-.46.45c-.69,0-1.38,0-2.06,0-.16,0-.44-.24-.44-.37C5.32,46.69,5.33,45.19,5.33,43.61Z"/><path d="M71.82,47.61h1.52c.33,0,.48.08.47.44s-.1.53-.48.53H70.94c-.37,0-.48-.2-.43-.55a2.13,2.13,0,0,1,.85-1.46,8.15,8.15,0,0,0,1.16-.93,1.17,1.17,0,0,0,.31-.77c0-.14-.34-.41-.49-.39a2.36,2.36,0,0,0-.79.4c-.12.08-.18.31-.28.32a1.25,1.25,0,0,1-.67-.11c-.08,0,0-.35,0-.52A1.41,1.41,0,0,1,72,43.51c.66,0,1.33,0,1.67.73a1.52,1.52,0,0,1-.25,1.85c-.5.5-1.08.92-1.61,1.37Z"/><path d="M80.05,47.61h1.48c.29,0,.51,0,.49.41s0,.56-.44.56c-.79,0-1.59,0-2.38,0-.16,0-.41-.29-.42-.46a1.73,1.73,0,0,1,.8-1.52c.43-.33.86-.65,1.26-1s.46-.69,0-1a.7.7,0,0,0-1.06.22c0,.09-.08.26-.15.28a1.59,1.59,0,0,1-.71.08c-.09,0-.18-.37-.14-.53A1.35,1.35,0,0,1,80,43.54a1.68,1.68,0,0,1,1.79.58,1.43,1.43,0,0,1-.06,1.8A10.19,10.19,0,0,1,80.52,47c-.17.14-.36.27-.54.4Z"/><path d="M86.06,81c0,1.16-.49,1.74-1.54,1.8s-1.77-.41-1.85-1.5a13,13,0,0,1,0-2.25,1.41,1.41,0,0,1,1.46-1.43c1-.06,1.68.32,1.86,1.11a1.75,1.75,0,0,1-.1.62,3.84,3.84,0,0,1-.83-.27c-.25-.12-.42-.43-.67-.5a.55.55,0,0,0-.73.52,16,16,0,0,0,0,2.19.78.78,0,0,0,.5.54c.27,0,.72-.17.78-.36C85.16,80.84,85.56,80.92,86.06,81Z"/><path d="M75.93,77.81c.83-.26.94-.2,1.16.52a15.25,15.25,0,0,0,1,2.58l.6-1.79c.08-.24.16-.49.22-.74.13-.65.5-.85,1.19-.59-.23.77-.44,1.54-.69,2.31s-.51,1.41-.75,2.13a.63.63,0,0,1-.69.52c-.39,0-.51-.2-.61-.52-.36-1.17-.75-2.33-1.13-3.5C76.08,78.43,76,78.11,75.93,77.81Z"/><path d="M24.25,77.72h1c-.07.82-.11,1.59-.22,2.36a.85.85,0,0,1-.42.62c-.84.29-.77,1-.74,1.61,0,.1,0,.21,0,.31-.81.25-.91.19-.89-.63,0-.54,0-1-.61-1.26a1,1,0,0,1-.47-.72c-.13-.73-.16-1.48-.23-2.21.95-.21,1-.17,1,.64,0,.3,0,.6.05.9s.2.75.71.75a.69.69,0,0,0,.77-.75C24.17,78.83,24.21,78.32,24.25,77.72Z"/><path d="M21,77.69v.86l-1.07.08V82c0,.84,0,.84-.95.71v-4l-1-.06c-.26-.78-.2-.88.58-.88Z"/><path d="M13.14,44.43v-.8h3.07l.05.8-1.11.08v2.55c0,.34,0,.69,0,1s-.12.5-.48.5-.51-.14-.5-.5c0-.94,0-1.89.06-2.83,0-.63-.13-.89-.76-.79A1.77,1.77,0,0,1,13.14,44.43Z"/><path d="M14,77.78v4l1.3.06c.24.8.19.86-.61.87-1.66,0-1.67,0-1.66-1.68,0-.88,0-1.76,0-2.64S13.1,77.61,14,77.78Z"/><path d="M82.65,43.71c.09-.07.11-.1.13-.1,1.52-.18,1.52-.18,1.52,1.29,0,1,0,2,0,3,0,.78-.07.82-.93.59V44.54l-.66-.12Z"/><path d="M81.72,82.69c-1,.09-1,.09-1-.73,0-1.26,0-2.53,0-3.79,0-.32.08-.53.42-.47s.53.22.53.34C81.74,79.57,81.72,81.11,81.72,82.69Z"/><path d="M17.09,82.75l-1,0c0-1.62,0-3.17,0-4.73,0-.1.31-.28.46-.27s.47.2.48.32C17.1,79.57,17.09,81.11,17.09,82.75Z"/><path d="M51.65,82.68c-.88.11-.88.11-.88-.68V77.79c.92-.19,1-.16.95.61l0,3.73C51.69,82.31,51.66,82.5,51.65,82.68Z"/></g></g></svg>